<?xml version="1.0" encoding="utf-8"?>
<!-- Generator: Adobe Illustrator 23.1.1, SVG Export Plug-In . SVG Version: 6.00 Build 0)  -->
<svg version="1.1" id="logo_bna" xmlns="http://www.w3.org/2000/svg" xmlns:xlink="http://www.w3.org/1999/xlink" x="0px" y="0px"
	 viewBox="0 0 273 43" style="enable-background:new 0 0 273 43;" xml:space="preserve">
<style type="text/css">
	.st0{fill:#FFFFFF;}
</style>
<g>
	<path class="st0" d="M28.9,10c0,0-0.1,0-0.1-0.1c0,0-0.1,0-0.1,0l-5.8,2.8c0,0,0,0,0,0h11.7c0,0,0,0,0,0L28.9,10z"/>
	<path class="st0" d="M28.8,1.5c-11.2,0-20.4,9.1-20.4,20.4c0,11.2,9.2,20.4,20.4,20.4c11.2,0,20.4-9.2,20.4-20.4
		C49.2,10.6,40,1.5,28.8,1.5 M40.3,33.7C40.3,33.8,40.3,33.8,40.3,33.7l-22.9,0.1c0,0-0.1,0-0.1-0.1v-2.3c0,0,0-0.1,0.1-0.1h22.9
		c0,0,0.1,0,0.1,0.1V33.7z M24.9,27.7V16.1h2.6v11.6h2.6V16.1h2.6v11.6h2.6V16.1h2.6v11.6h1.2v2.4c0,0,0,0.1-0.1,0.1H18.5
		c0,0-0.1,0-0.1-0.1v-2.4h1.2V16.1h2.6v11.6H24.9z M41,13.7L40.3,15c0,0-0.1,0.1-0.1,0.1H17.4c0,0-0.1,0-0.1-0.1l-0.7-1.3
		c0,0,0-0.1,0-0.1l12.1-6.5c0,0,0.1,0,0.1,0L41,13.6C41.1,13.6,41.1,13.6,41,13.7"/>
	<path class="st0" d="M59.4,29.4c0.2-0.1,0.5-0.1,1-0.2c0.4-0.1,0.8-0.1,1.2-0.1V15c-0.4,0-0.8,0-1.2-0.1c-0.4-0.1-0.8-0.1-1-0.2
		v-1.9h7.9c0.9,0,1.7,0.1,2.4,0.2c0.8,0.2,1.4,0.4,2,0.8c0.6,0.4,1,0.8,1.4,1.4c0.3,0.6,0.5,1.3,0.5,2.2c0,1.2-0.3,2.1-0.9,2.8
		c-0.6,0.7-1.4,1.2-2.4,1.4v0.1c0.6,0.1,1.1,0.3,1.6,0.5c0.5,0.2,1,0.5,1.3,0.9c0.4,0.4,0.7,0.8,0.9,1.3c0.2,0.5,0.3,1.1,0.3,1.8
		c0,0.9-0.2,1.7-0.5,2.4c-0.4,0.7-0.8,1.2-1.5,1.6c-0.6,0.4-1.4,0.7-2.2,0.9c-0.9,0.2-1.8,0.3-2.9,0.3h-7.9V29.4z M64.7,20.6H67
		c1.2,0,2.1-0.2,2.7-0.7c0.6-0.5,0.8-1.2,0.8-2.1c0-1.8-1.1-2.7-3.4-2.7h-2.3V20.6z M64.7,29h2.5c1.4,0,2.4-0.2,3-0.7
		c0.7-0.5,1-1.3,1-2.3c0-1-0.3-1.8-0.9-2.3c-0.6-0.6-1.6-0.8-3-0.8h-2.6V29z"/>
	<path class="st0" d="M79.7,31.7c-0.6,0-1.1-0.1-1.6-0.3c-0.5-0.2-0.9-0.4-1.3-0.7c-0.4-0.3-0.6-0.7-0.8-1.2c-0.2-0.5-0.3-1-0.3-1.6
		c0-0.9,0.2-1.6,0.6-2.2c0.4-0.6,1-1.1,1.6-1.4c0.7-0.4,1.4-0.6,2.3-0.8c0.9-0.2,1.7-0.2,2.6-0.2h0.5v-1.1c0-0.8-0.2-1.4-0.6-1.8
		c-0.4-0.4-1-0.5-1.9-0.5c-0.7,0-1.3,0.1-1.9,0.4c-0.6,0.3-1.1,0.6-1.6,1l-1.3-1.8c0.6-0.5,1.3-1,2.2-1.4c0.9-0.4,1.8-0.6,3-0.6
		c1.7,0,3,0.4,3.8,1.1c0.8,0.7,1.3,2,1.3,3.6v5.6c0,0.3,0,0.5,0,0.7c0,0.2,0,0.4,0,0.6c0.4,0,0.7,0.1,1.1,0.1c0.3,0,0.6,0,0.9,0v2
		c-0.4,0-1,0.1-1.8,0.1c-0.8,0-1.7,0.1-2.7,0.1c-0.1-0.2-0.1-0.4-0.1-0.7c0-0.3-0.1-0.6-0.1-1h-0.1c-0.4,0.5-0.9,0.9-1.5,1.3
		C81.4,31.5,80.6,31.7,79.7,31.7 M80.5,29.4c0.7,0,1.3-0.1,1.8-0.4c0.5-0.3,0.9-0.6,1.2-1.1v-2.8H83c-1.3,0-2.3,0.2-3.1,0.6
		c-0.8,0.4-1.2,1.1-1.2,2c0,0.6,0.2,1,0.6,1.3C79.7,29.3,80.1,29.4,80.5,29.4"/>
	<path class="st0" d="M89.8,29.4c0.2-0.1,0.5-0.1,0.9-0.2c0.4-0.1,0.8-0.1,1.2-0.1V20c-0.4,0-0.8-0.1-1.2-0.1c-0.4,0-0.7,0-0.9,0
		v-1.9c0.4-0.1,1.1-0.1,2-0.2c0.9,0,1.9-0.1,3.1-0.1l-0.1,2.1h0.1c0.5-0.7,1.1-1.2,1.8-1.6c0.7-0.4,1.5-0.6,2.5-0.6
		c0.7,0,1.3,0.1,1.9,0.3c0.5,0.2,0.9,0.5,1.2,0.9c0.3,0.4,0.5,0.8,0.7,1.4c0.1,0.5,0.2,1.1,0.2,1.7v7.3c0.4,0,0.8,0,1.2,0.1
		c0.4,0.1,0.7,0.1,0.9,0.2v1.9h-7v-1.9c0.2,0,0.5-0.1,0.8-0.1c0.4-0.1,0.8-0.1,1.1-0.1v-6.8c0-0.8-0.2-1.3-0.5-1.8
		c-0.3-0.4-0.9-0.6-1.6-0.6c-0.7,0-1.3,0.2-1.9,0.6c-0.5,0.4-1,0.9-1.4,1.4v7.2c0.4,0,0.7,0.1,1.1,0.1c0.4,0.1,0.7,0.1,0.8,0.1v1.9
		h-7V29.4z"/>
	<path class="st0" d="M114.2,21.5c0-0.2,0-0.5-0.1-0.7c0-0.2,0-0.5,0-0.7c-0.4-0.2-1-0.3-1.6-0.3c-0.6,0-1.2,0.1-1.6,0.4
		c-0.5,0.3-0.8,0.6-1.2,1c-0.3,0.4-0.5,0.9-0.7,1.5c-0.2,0.6-0.2,1.2-0.2,1.9c0,0.7,0.1,1.3,0.3,1.9c0.2,0.6,0.4,1.1,0.7,1.5
		c0.3,0.4,0.7,0.8,1.2,1c0.5,0.3,1,0.4,1.7,0.4c0.4,0,0.8,0,1.1-0.1c0.3-0.1,0.6-0.2,0.9-0.3c0.3-0.1,0.5-0.2,0.7-0.3
		c0.2-0.1,0.3-0.2,0.5-0.3l1,2c-0.1,0.1-0.4,0.2-0.6,0.4c-0.3,0.1-0.6,0.3-1,0.4c-0.4,0.1-0.8,0.3-1.3,0.3c-0.5,0.1-1,0.1-1.7,0.1
		c-1.1,0-2-0.2-2.8-0.5c-0.8-0.3-1.5-0.8-2.1-1.4c-0.6-0.6-1-1.3-1.3-2.2c-0.3-0.8-0.4-1.7-0.4-2.7c0-1.2,0.2-2.2,0.5-3.1
		c0.3-0.9,0.8-1.7,1.4-2.3c0.6-0.6,1.3-1.1,2.2-1.4c0.8-0.3,1.7-0.5,2.7-0.5c1,0,1.8,0.1,2.5,0.3c0.7,0.2,1.2,0.5,1.5,0.7v2.9H114.2
		z"/>
	<path class="st0" d="M124.2,31.7c-1.1,0-2.1-0.2-3-0.6c-0.8-0.4-1.5-0.9-2-1.6c-0.5-0.6-0.9-1.4-1.1-2.2c-0.2-0.8-0.4-1.7-0.4-2.6
		c0-0.8,0.1-1.7,0.4-2.5c0.2-0.9,0.6-1.6,1.2-2.3c0.5-0.7,1.2-1.2,2-1.7c0.8-0.4,1.8-0.7,2.9-0.7c1.1,0,2.1,0.2,3,0.6
		c0.8,0.4,1.5,0.9,2.1,1.6c0.5,0.7,0.9,1.4,1.2,2.2c0.3,0.8,0.4,1.7,0.4,2.6c0,0.8-0.1,1.7-0.4,2.5c-0.3,0.9-0.7,1.6-1.2,2.3
		c-0.5,0.7-1.2,1.3-2.1,1.7C126.3,31.5,125.3,31.7,124.2,31.7 M124.2,29.4c0.6,0,1.1-0.1,1.6-0.4c0.4-0.2,0.8-0.6,1.1-1
		c0.3-0.4,0.5-0.9,0.6-1.5c0.1-0.6,0.2-1.2,0.2-1.9c0-0.7-0.1-1.3-0.2-1.9c-0.1-0.6-0.3-1.1-0.6-1.5c-0.3-0.4-0.6-0.8-1.1-1
		c-0.4-0.3-1-0.4-1.6-0.4c-0.6,0-1.1,0.1-1.5,0.4c-0.4,0.3-0.8,0.6-1,1c-0.3,0.4-0.5,0.9-0.6,1.5c-0.1,0.6-0.2,1.2-0.2,1.9
		c0,0.7,0.1,1.3,0.2,1.9c0.1,0.6,0.3,1.1,0.6,1.6c0.3,0.4,0.6,0.8,1,1.1C123.1,29.3,123.6,29.4,124.2,29.4"/>
	<path class="st0" d="M137.8,29.4c0.2-0.1,0.5-0.1,1-0.2c0.4-0.1,0.8-0.1,1.2-0.1V15c-0.4,0-0.8,0-1.2-0.1c-0.4-0.1-0.8-0.1-1-0.2
		v-1.9h5.2l7.9,11c0.4,0.6,0.8,1.2,1.2,1.8c0.4,0.6,0.6,0.9,0.7,1.1h0.1c0-0.2,0-0.5-0.1-1c0-0.5,0-1.1,0-1.8v-9
		c-0.4,0-0.8,0-1.2-0.1c-0.4-0.1-0.7-0.1-0.9-0.2v-1.9h7v1.9c-0.2,0.1-0.5,0.1-0.9,0.2c-0.4,0.1-0.8,0.1-1.2,0.1v16.4h-2.7
		l-8.3-11.7c-0.2-0.3-0.4-0.6-0.6-0.8c-0.2-0.3-0.4-0.6-0.5-0.8c-0.1-0.2-0.3-0.5-0.4-0.7c-0.1-0.2-0.2-0.3-0.2-0.4h-0.1
		c0,0.2,0.1,0.5,0.1,1c0,0.5,0,0.9,0,1.4v9.9c0.4,0,0.8,0.1,1.2,0.1c0.4,0,0.8,0.1,1,0.2v1.9h-7.1V29.4z"/>
	<path class="st0" d="M162,31.7c-0.6,0-1.1-0.1-1.6-0.3c-0.5-0.2-0.9-0.4-1.3-0.7c-0.4-0.3-0.6-0.7-0.8-1.2c-0.2-0.5-0.3-1-0.3-1.6
		c0-0.9,0.2-1.6,0.6-2.2c0.4-0.6,1-1.1,1.6-1.4c0.7-0.4,1.4-0.6,2.3-0.8c0.9-0.2,1.7-0.2,2.6-0.2h0.5v-1.1c0-0.8-0.2-1.4-0.6-1.8
		c-0.4-0.4-1-0.5-1.9-0.5c-0.7,0-1.3,0.1-1.9,0.4c-0.6,0.3-1.1,0.6-1.6,1l-1.3-1.8c0.6-0.5,1.3-1,2.2-1.4c0.9-0.4,1.8-0.6,3-0.6
		c1.7,0,3,0.4,3.8,1.1c0.8,0.7,1.3,2,1.3,3.6v5.7c0,0.3,0,0.5,0,0.7c0,0.2,0,0.4,0,0.6c0.4,0,0.7,0.1,1.1,0.1c0.3,0,0.6,0,0.9,0v2
		c-0.4,0-1,0.1-1.8,0.1c-0.8,0-1.7,0.1-2.7,0.1c-0.1-0.2-0.1-0.4-0.1-0.7c0-0.3-0.1-0.6-0.1-1h-0.1c-0.4,0.5-0.9,0.9-1.5,1.3
		C163.6,31.5,162.9,31.7,162,31.7 M162.7,29.4c0.7,0,1.3-0.1,1.8-0.4c0.5-0.3,0.9-0.6,1.2-1.1v-2.8h-0.5c-1.3,0-2.3,0.2-3.1,0.6
		c-0.8,0.4-1.2,1.1-1.2,2c0,0.6,0.2,1.1,0.6,1.3C161.9,29.3,162.3,29.4,162.7,29.4"/>
	<path class="st0" d="M179.8,21.5c0-0.2,0-0.5-0.1-0.7c0-0.3,0-0.5,0-0.7c-0.4-0.2-1-0.3-1.6-0.3c-0.6,0-1.1,0.1-1.6,0.4
		c-0.5,0.3-0.8,0.6-1.2,1c-0.3,0.4-0.5,0.9-0.7,1.5c-0.2,0.6-0.2,1.2-0.2,1.9c0,0.7,0.1,1.3,0.3,1.9c0.2,0.6,0.4,1.1,0.7,1.5
		c0.3,0.4,0.7,0.8,1.2,1c0.5,0.2,1,0.4,1.7,0.4c0.4,0,0.8,0,1.1-0.1c0.3-0.1,0.6-0.2,0.9-0.3c0.3-0.1,0.5-0.2,0.7-0.3
		c0.2-0.1,0.3-0.2,0.5-0.3l1,2c-0.1,0.1-0.4,0.2-0.6,0.4c-0.3,0.1-0.6,0.3-1,0.4c-0.4,0.1-0.8,0.3-1.3,0.3c-0.5,0.1-1,0.1-1.7,0.1
		c-1.1,0-2-0.2-2.8-0.5c-0.8-0.3-1.5-0.8-2.1-1.4c-0.6-0.6-1-1.3-1.3-2.2c-0.3-0.8-0.4-1.7-0.4-2.7c0-1.2,0.2-2.2,0.5-3.1
		c0.3-0.9,0.8-1.7,1.4-2.3c0.6-0.6,1.3-1.1,2.2-1.4c0.8-0.3,1.7-0.5,2.7-0.5c1,0,1.8,0.1,2.5,0.3c0.7,0.2,1.2,0.5,1.5,0.7v2.9H179.8
		z"/>
	<path class="st0" d="M183.9,29.4c0.2-0.1,0.5-0.1,0.9-0.2c0.4-0.1,0.8-0.1,1.2-0.1V20c-0.4,0-0.8-0.1-1.2-0.1c-0.4,0-0.7,0-0.9,0
		v-1.9c0.4-0.1,1.1-0.1,2-0.2c0.9,0,2-0.1,3.1-0.1l-0.1,2.2v9.3c0.4,0,0.8,0,1.1,0.1c0.4,0.1,0.7,0.1,0.9,0.2v1.9h-7.1V29.4z
		 M187.4,16c-0.5,0-0.9-0.2-1.2-0.5c-0.3-0.3-0.5-0.7-0.5-1.2c0-0.5,0.2-0.9,0.5-1.2c0.3-0.3,0.7-0.5,1.2-0.5c0.5,0,0.9,0.2,1.2,0.5
		c0.3,0.3,0.5,0.7,0.5,1.2c0,0.5-0.2,0.9-0.5,1.2C188.4,15.9,187.9,16,187.4,16"/>
	<path class="st0" d="M198.4,31.7c-1.1,0-2.1-0.2-3-0.6c-0.8-0.4-1.5-0.9-2-1.6c-0.5-0.6-0.9-1.4-1.1-2.2c-0.2-0.8-0.4-1.7-0.4-2.6
		c0-0.8,0.1-1.7,0.4-2.5c0.3-0.9,0.6-1.6,1.2-2.3c0.5-0.7,1.2-1.2,2-1.7c0.8-0.4,1.8-0.7,2.9-0.7c1.1,0,2.1,0.2,3,0.6
		c0.8,0.4,1.5,0.9,2.1,1.6c0.5,0.6,0.9,1.4,1.2,2.2c0.3,0.8,0.4,1.7,0.4,2.6c0,0.8-0.1,1.6-0.4,2.5c-0.3,0.9-0.7,1.6-1.2,2.3
		c-0.5,0.7-1.2,1.3-2.1,1.7C200.6,31.4,199.6,31.7,198.4,31.7 M198.5,29.4c0.6,0,1.1-0.1,1.6-0.4c0.4-0.3,0.8-0.6,1.1-1
		c0.3-0.4,0.5-0.9,0.6-1.5c0.1-0.6,0.2-1.2,0.2-1.9c0-0.7-0.1-1.3-0.2-1.9c-0.1-0.6-0.3-1.1-0.6-1.5c-0.3-0.4-0.6-0.8-1.1-1
		c-0.4-0.3-1-0.4-1.6-0.4c-0.6,0-1.1,0.1-1.5,0.4c-0.4,0.3-0.8,0.6-1,1c-0.3,0.4-0.5,0.9-0.6,1.5c-0.1,0.6-0.2,1.2-0.2,1.9
		c0,0.7,0.1,1.3,0.2,1.9c0.1,0.6,0.3,1.1,0.6,1.6c0.3,0.4,0.6,0.8,1,1.1C197.4,29.3,197.9,29.4,198.5,29.4 M199.4,12.7h4l-3.5,3.1
		h-2.6L199.4,12.7z"/>
	<path class="st0" d="M206,29.4c0.2-0.1,0.5-0.1,0.9-0.2c0.4-0.1,0.8-0.1,1.2-0.1V20c-0.4,0-0.8-0.1-1.2-0.1c-0.4,0-0.7,0-0.9,0
		v-1.9c0.4-0.1,1.1-0.1,2-0.1c0.9,0,1.9-0.1,3.1-0.1l-0.1,2.1h0.1c0.5-0.7,1.1-1.2,1.8-1.6c0.7-0.4,1.5-0.6,2.5-0.6
		c0.7,0,1.3,0.1,1.9,0.3c0.5,0.2,0.9,0.5,1.2,0.9c0.3,0.4,0.5,0.8,0.7,1.4c0.1,0.5,0.2,1.1,0.2,1.7v7.3c0.4,0,0.8,0,1.2,0.1
		c0.4,0.1,0.7,0.1,0.9,0.2v1.9h-7v-1.9c0.2,0,0.5-0.1,0.8-0.1c0.4-0.1,0.8-0.1,1.1-0.1v-6.8c0-0.8-0.2-1.3-0.5-1.8
		c-0.3-0.4-0.9-0.6-1.6-0.6c-0.7,0-1.3,0.2-1.9,0.6c-0.5,0.4-1,0.9-1.4,1.4v7.2c0.4,0,0.7,0.1,1.1,0.1c0.4,0.1,0.7,0.1,0.8,0.1v1.9
		h-7V29.4z"/>
</g>
</svg>
